<svg xmlns="http://www.w3.org/2000/svg" viewBox="0 0 763 926" width="300" height="364">
	<style>
		.s0 { fill: #dbdbdb } 
		.s1 { fill: #dadadb } 
		.s2 { fill: #21a2db } 
		.s3 { fill: #158cb5 } 
		.s4 { fill: #ffffff } 
	</style>
	<g>
	</g>
	<g>
		<g>
			<g>
				<g>
					<path  class="s0" d="m647 878.2c0 17.1-116 30.9-259 30.9-143 0-259-13.8-259-30.9 0-17 116-30.8 259-30.8 143 0 259 13.8 259 30.8z"/>
				</g>
			</g>
			<g>
				<path  class="s1" d="m402.7 799.3l73.5-40c164.9-89.8 267.8-263.8 267.8-453.2v-191.2c0-14.9-11.7-27.3-26.4-27.7-173.5-4.7-281.2-55.4-316.7-75-8-4.4-17.8-4.4-25.8 0-35.5 19.6-143.2 70.3-316.7 75-14.7 0.4-26.4 12.8-26.4 27.7v191.2c0 189.4 102.9 363.4 267.8 453.2l73.5 40c9.2 5 20.2 5 29.4 0z"/>
				<path  class="s2" d="m708.8 137.4v162.2c0 180.7-97.6 346-254.8 431.5l-52.1 28.4c-4.3 2.3-9.1 3.5-13.9 3.5-4.8 0-9.6-1.2-13.9-3.5l-52.1-28.4c-157.2-85.5-254.8-250.8-254.8-431.5v-162.2c0-7.7 6.1-14 13.7-14.5 147.9-10.1 249.4-49.2 300.7-74.3 2.1-1 4.2-1.5 6.4-1.5 2.2 0 4.3 0.5 6.4 1.5 51.3 25.1 152.9 64.2 300.7 74.3 7.6 0.5 13.7 6.8 13.7 14.5z"/>
				<path  class="s3" d="m708.8 137.4v162.2c0 180.7-97.6 346-254.8 431.5l-52.1 28.4c-4.3 2.3-9.1 3.5-13.9 3.5v-715.9c2.2 0 4.3 0.5 6.4 1.5 51.3 25.1 152.9 64.2 300.7 74.3 7.6 0.5 13.7 6.8 13.7 14.5z"/>
				<path  fill-rule="evenodd" class="s4" d="m536.3 367.2v194.5c0 14.5-11.8 26.3-26.3 26.3h-244c-14.5 0-26.3-11.8-26.3-26.3v-194.5c0-14.6 11.8-26.4 26.3-26.4h244c14.5 0 26.3 11.8 26.3 26.4zm-108.3 77.2c0-22.1-17.9-40-40-40-22.1 0-40 17.9-40 40 0 13.3 6.5 25.1 16.5 32.4v19.4c0 13 10.5 23.6 23.5 23.6 13 0 23.5-10.6 23.5-23.6v-19.4c10-7.3 16.5-19.1 16.5-32.4z"/>
				<path  class="s4" d="m475.1 300v30.5c0 10.4-8.4 18.8-18.8 18.8-10.4 0-18.9-8.4-18.9-18.8v-29.3c0-26.8-20.7-49.6-47.5-50.6-28.1-1.1-51.3 21.5-51.3 49.4v54h-37.7v-52.6c0-47.5 37.4-87.3 84.9-88.5 24.9-0.6 47.5 9.2 63.8 25.5 15.8 15.7 25.5 37.5 25.5 61.6z"/>
			</g>
		</g>
	</g>
</svg>